<svg xmlns="http://www.w3.org/2000/svg" viewBox="0 0 512 512"><rect width="512" height="512" rx="112" fill="#0a1059"/><g transform="translate(0,512) scale(0.1,-0.1)" fill="#ffffff"><path d="M760 5113 c-136 -14 -281 -66 -390 -138 -84 -56 -198 -176 -250 -264
-48 -82 -95 -221 -109 -324 -8 -53 -11 -647 -11 -1846 0 -1545 2 -1780 15
-1856 60 -343 328 -610 671 -670 131 -23 3618 -23 3749 0 344 60 610 326 670
670 13 76 15 321 15 1875 0 1967 3 1880 -61 2039 -97 242 -295 417 -559 494
l-75 22 -1815 1 c-998 1 -1831 -1 -1850 -3z m3834 -1030 c-81 -159 -152 -293
-158 -300 -17 -19 -3684 -20 -3701 -1 -11 12 -345 561 -353 580 -2 4 978 8
2178 8 l2181 0 -147 -287z m-2435 -1590 c223 -392 408 -713 411 -713 3 0 109
189 237 420 l231 420 -264 0 -264 0 2 293 3 292 777 0 c428 0 778 -3 778 -7 0
-4 -313 -557 -696 -1228 l-697 -1221 -110 3 -110 3 -549 950 c-302 523 -619
1070 -704 1217 -85 147 -154 272 -154 278 0 7 115 9 352 8 l351 -3 406 -712z"/></g></svg>